<svg width="1926" height="1818" viewBox="0 0 1926 1818" fill="none" xmlns="http://www.w3.org/2000/svg">
<path d="M1344.48 1628.7C1477.5 1628.7 1715.39 1606.3 1715.39 1578.67C1715.39 1551.04 1344.48 1528.64 1344.48 1528.64C635.04 1528.64 59.9282 1551.04 59.9282 1578.67C59.9282 1606.3 635.04 1628.7 1344.48 1628.7Z" fill="#E8E8E8"/>
<path d="M1691.42 712.071L1660.55 1041.68L1618.78 1487.59C1614.79 1530.09 1579.1 1562.59 1536.43 1562.59H1283.91L1260.3 1348.49L1248.5 1137.29L1236.88 1003.36L1211.64 712.071H1691.42Z" fill="#F4B037"/>
<path d="M1691.42 712.071L1660.46 1041.68L1236.79 1003.45L1211.54 712.071H1691.42Z" fill="#EAA22F"/>
<path d="M1758.98 374.931L1703.23 997.365L1143.9 947.243L1210.45 204.409L1624.68 241.546L1758.98 374.931Z" fill="#EDEDED"/>
<path d="M1613.88 361.947L1624.68 241.546L1758.98 374.931L1613.88 361.947Z" fill="#904E8F"/>
<path d="M1480.22 773.816L1480.13 774.633C1478.5 792.521 1462.97 805.959 1444.9 804.779L1444.08 804.688C1426.2 803.054 1412.76 787.527 1413.94 769.458C1415.12 751.207 1430.92 737.314 1449.17 738.495L1450.08 738.586C1467.96 740.311 1481.31 755.928 1480.22 773.816Z" fill="#904E8F"/>
<path d="M1584.55 536.556C1584.37 537.191 1584.19 537.917 1583.92 538.553C1583.55 539.824 1583.1 541.005 1582.64 542.276C1582.28 543.184 1581.92 544.183 1581.55 545.091C1579.28 550.811 1576.38 556.259 1572.84 561.616C1572.75 561.707 1572.75 561.798 1572.66 561.798C1571.66 563.432 1570.48 565.067 1569.11 566.792C1563.3 574.51 1554.86 583.499 1543.87 593.76C1541.97 595.576 1539.88 597.482 1537.7 599.389C1531.25 605.2 1523.99 611.375 1515.91 617.912C1501.01 630.079 1492.39 640.522 1487.76 647.695C1481.49 657.229 1481.13 682.38 1479.77 693.912C1478.68 703.355 1471.23 710.347 1462.79 709.893L1433.91 708.077C1425.2 707.532 1418.57 699.178 1419.29 689.372C1419.39 687.919 1419.48 686.466 1419.66 685.104C1421.47 665.219 1422.65 633.53 1434.55 615.279C1438.73 608.832 1443.63 601.296 1450.53 593.85C1452.35 592.034 1454.16 590.127 1456.07 588.13C1461.97 582.409 1468.78 576.417 1476.5 570.152C1480.68 566.792 1484.49 563.705 1488.03 560.89C1491.39 558.075 1494.48 555.533 1497.11 553.263C1503.19 548.087 1507.73 544.001 1510.64 540.914C1511.82 539.733 1512.73 538.735 1513.36 537.827C1513.82 537.282 1514.18 536.737 1514.63 536.102C1517.72 531.925 1519.99 527.385 1521.54 522.663C1522.17 520.756 1522.72 518.759 1523.17 516.852C1523.62 514.582 1523.99 512.312 1524.08 509.86C1524.35 505.865 1524.17 502.052 1523.62 498.329C1523.35 496.331 1522.99 494.334 1522.44 492.427C1520.45 484.981 1516.63 478.08 1511.18 471.815C1508.28 468.546 1505.01 465.732 1501.38 463.371C1499.83 462.281 1498.11 461.282 1496.38 460.465C1494.93 459.648 1493.48 459.103 1491.93 458.468C1490.03 457.65 1488.03 456.924 1486.03 456.47C1481.31 455.108 1476.14 454.291 1470.6 453.928C1464.88 453.564 1459.43 453.837 1454.34 454.745C1452.35 455.108 1450.35 455.562 1448.35 456.107C1446.17 456.742 1443.99 457.469 1441.9 458.468C1440.09 459.194 1438.27 460.011 1436.64 460.919C1433.37 462.735 1430.19 464.914 1427.29 467.366C1417.93 475.175 1410.49 486.434 1404.95 501.144C1402.04 509.134 1394.6 513.765 1387.15 512.221L1356.19 505.956C1346.93 504.14 1341.3 493.607 1344.11 483.438C1350.47 460.647 1363 441.034 1381.61 424.872C1387.15 420.059 1392.96 415.882 1399.14 412.341C1400.77 411.433 1402.5 410.434 1404.22 409.617C1406.86 408.346 1409.49 407.165 1412.3 405.985C1414.12 405.259 1415.94 404.532 1417.75 403.897C1433.82 398.267 1451.71 396.088 1471.5 397.359C1493.75 398.721 1513 403.715 1529.44 412.341C1531.16 413.249 1532.89 414.248 1534.61 415.247C1535.88 416.064 1537.15 416.79 1538.33 417.608C1539.97 418.697 1541.51 419.787 1543.06 420.876C1549.23 425.416 1554.95 430.592 1560.13 436.403C1574.2 452.202 1583.1 469.364 1586.82 487.887C1587.27 489.884 1587.55 491.791 1587.82 493.88C1588.82 501.144 1589.09 508.589 1588.55 516.216C1587.82 523.026 1586.64 529.927 1584.55 536.556Z" fill="#904E8F"/>
<path d="M1422.11 770.819C1420.75 770.728 1419.66 769.548 1419.66 768.186C1419.48 755.383 1428.19 750.117 1432.82 749.209C1434.28 748.936 1435.73 749.844 1436 751.297C1436.27 752.75 1435.37 754.112 1433.91 754.475C1433.55 754.566 1424.83 756.654 1425.02 768.095C1425.02 769.548 1423.83 770.819 1422.38 770.819C1422.29 770.819 1422.2 770.819 1422.11 770.819Z" fill="#E0E0E0"/>
<path d="M1573.38 521.573C1571.48 521.392 1570.11 519.757 1570.2 517.941C1574.47 454.018 1524.99 430.773 1524.44 430.592C1522.72 429.775 1521.9 427.777 1522.72 426.052C1523.53 424.327 1525.53 423.509 1527.26 424.327C1527.8 424.599 1581.55 449.751 1577.01 518.486C1577.11 520.211 1575.38 521.664 1573.38 521.573C1573.47 521.573 1573.47 521.573 1573.38 521.573Z" fill="#EDEDED"/>
<path d="M1536.34 1562.59H200.486C155.631 1562.59 117.858 1529.09 112.41 1484.6L107.416 1444.1L79.5409 1214.74L23.0633 751.115C19.8853 724.874 40.3153 701.811 66.7381 701.811H816.837C829.821 701.811 841.898 694.638 848.163 683.288L872.134 639.25C878.399 627.809 890.385 620.636 903.46 620.636H1317.24C1345.29 620.636 1368.72 641.792 1371.62 669.668L1385.97 808.592L1451.71 1444.1L1456.52 1490.68C1460.88 1531.45 1495.2 1562.59 1536.34 1562.59Z" fill="#FABC3F"/>
<path d="M1386.06 808.501C703.428 820.577 298.914 1036.05 79.5409 1214.65L23.0633 751.024C19.8853 724.783 40.3153 701.72 66.7381 701.72H816.837C829.821 701.72 841.898 694.547 848.163 683.197L872.134 639.159C878.399 627.718 890.385 620.545 903.46 620.545H1317.24C1345.29 620.545 1368.72 641.701 1371.62 669.577L1386.06 808.501Z" fill="#FFC45C"/>
<path d="M648.467 854.078L554.851 892.389L628.205 1071.64L721.821 1033.33L648.467 854.078Z" fill="#E2E2E2"/>
<path d="M648.505 854.102L623.798 864.212L697.152 1043.46L721.859 1033.35L648.505 854.102Z" fill="#C6C7CD"/>
<path d="M668.561 895.125L569.316 935.712C565.775 937.165 561.78 935.44 560.327 931.899L545.618 896.033L657.574 850.179L672.284 886.045C673.736 889.677 672.102 893.672 668.561 895.125Z" fill="#2A2A2C"/>
<path opacity="0.4" d="M586.205 835.469C438.655 895.851 270.221 825.209 209.839 677.659C149.548 530.199 220.19 361.765 367.65 301.383C515.2 241.001 683.634 311.644 744.016 459.194C804.398 606.653 733.755 775.087 586.205 835.469Z" fill="#F2F4F3"/>
<path opacity="0.4" d="M549.158 744.942C451.639 784.894 340.228 738.132 300.366 640.612C260.505 543.184 307.176 431.772 404.696 391.82C502.215 351.868 613.626 398.63 653.488 496.15C693.44 593.669 646.678 705.08 549.158 744.942Z" fill="#CCCCCC"/>
<path d="M800.311 436.131C727.217 257.527 523.19 171.993 344.495 245.087C165.892 318.181 80.449 522.209 153.452 700.813C226.546 879.416 430.665 964.95 609.268 891.856C787.872 818.762 873.496 614.734 800.311 436.131ZM200.668 681.563C138.289 528.928 211.292 354.683 363.927 292.122C516.471 229.742 690.807 302.836 753.277 455.38C815.657 608.015 742.653 782.26 590.019 844.731C437.384 907.201 263.048 834.107 200.668 681.563Z" fill="#414143"/>
<path d="M762.357 451.566C697.798 293.938 517.651 218.483 360.022 283.042C202.393 347.51 126.939 527.657 191.407 685.376C255.965 843.005 436.113 918.46 593.741 853.901C751.37 789.433 826.825 609.286 762.357 451.566ZM589.928 844.639C437.384 907.201 263.048 834.016 200.577 681.472C138.198 528.837 211.201 354.592 363.836 292.031C516.38 229.651 690.716 302.745 753.186 455.289C815.566 608.015 742.563 782.26 589.928 844.639Z" fill="#2A2A2C"/>
<path opacity="0.5" d="M753.186 455.38C690.807 302.836 516.38 229.742 363.836 292.122C211.201 354.683 138.198 528.928 200.668 681.563C263.048 834.107 437.475 907.201 590.019 844.731C742.563 782.26 815.566 608.015 753.186 455.38ZM583.027 827.66C439.835 886.317 276.214 817.672 217.648 674.481C159.082 531.38 227.727 367.758 370.827 309.192C514.019 250.535 677.641 319.18 736.207 462.372C794.863 605.473 726.219 769.094 583.027 827.66Z" fill="#C6C7CD"/>
<path d="M926.524 1518.38L822.467 1560.96C811.389 1565.5 798.677 1560.14 794.137 1549.07L592.743 1057.38C588.203 1046.31 593.56 1033.59 604.638 1029.05L708.694 986.469C719.772 981.929 732.484 987.287 737.024 998.364L938.237 1490.05C942.958 1501.12 937.601 1513.84 926.524 1518.38Z" fill="#904E8F"/>
<path d="M737.115 998.364L938.328 1489.96C942.868 1501.03 937.601 1513.84 926.524 1518.38L901.1 1528.82C912.177 1524.28 917.535 1511.47 912.995 1500.4L711.782 1008.81C707.242 997.728 694.439 992.371 683.361 996.911L708.785 986.469C719.954 981.838 732.575 987.286 737.115 998.364Z" fill="#633962"/>
<path d="M542.984 659.771C536.265 659.771 529.455 657.228 524.279 652.144L392.165 522.935C381.633 512.584 381.451 495.695 391.711 485.163C402.063 474.63 418.951 474.448 429.484 484.709L561.598 613.917C572.131 624.268 572.313 641.157 562.052 651.69C556.877 657.047 549.976 659.771 542.984 659.771Z" fill="#904E8F"/>
<path d="M410.87 659.771C403.97 659.771 396.978 657.047 391.802 651.69C381.451 641.157 381.633 624.177 392.256 613.917L524.37 484.709C534.903 474.358 551.883 474.539 562.143 485.163C572.494 495.696 572.313 512.675 561.689 522.935L429.575 652.144C424.4 657.229 417.59 659.771 410.87 659.771Z" fill="#904E8F"/>
</svg>
